PathFileType	4	(X/Y/Z)	E:\Qualisys_Data\Carbon_Farble_Plate\Data\Amateur_Runner\S2\T3\S2T3V12_c3d.trc
DataRate	CameraRate	NumFrames	NumMarkers	Units	OrigDataRate	OrigDataStartFrame	OrigNumFrames
200.000000	200.000000	4	39	mm	200.000000	0	316
Frame#	Time	LSHO			RSHO			LICST			RICST			LASIS			LHEEL			RASIS			LTROC			RTROC			SACR			LTH1			LSK4			LTH2			LTH3			RHM5			LSK2			LTH4			RTH1			LTOE			RTH2			RTH3			RTH4			LLEP			RLEP			LSK1			LSK3			RSK1			LHM5			RSK2			LFT1			RSK3			RSK4			LLME			RLME			RTOE			RHEEL			RFT1			RFT2			LFT2			
		X1	Y1	Z1	X2	Y2	Z2	X3	Y3	Z3	X4	Y4	Z4	X5	Y5	Z5	X6	Y6	Z6	X7	Y7	Z7	X8	Y8	Z8	X9	Y9	Z9	X10	Y10	Z10	X11	Y11	Z11	X12	Y12	Z12	X13	Y13	Z13	X14	Y14	Z14	X15	Y15	Z15	X16	Y16	Z16	X17	Y17	Z17	X18	Y18	Z18	X19	Y19	Z19	X20	Y20	Z20	X21	Y21	Z21	X22	Y22	Z22	X23	Y23	Z23	X24	Y24	Z24	X25	Y25	Z25	X26	Y26	Z26	X27	Y27	Z27	X28	Y28	Z28	X29	Y29	Z29	X30	Y30	Z30	X31	Y31	Z31	X32	Y32	Z32	X33	Y33	Z33	X34	Y34	Z34	X35	Y35	Z35	X36	Y36	Z36	X37	Y37	Z37	X38	Y38	Z38	X39	Y39	Z39	

1	0	-2037.4775390625	1524.463256835938	-535.5083618164062	-2089.089111328125	1504.628173828125	-233.2954254150391	-2110.7021484375	1062.4365234375	-532.869873046875	-2106.204345703125	1053.710815429688	-236.585205078125	-2060.4970703125	1007.675109863281	-518.8518676757812	-2572.782470703125	341.6707458496094	-445.4998474121094	-2050.311279296875	1006.215148925781	-265.5160522460938	-2207.43017578125	958.0054321289062	-535.922607421875	-2183.50634765625	949.332763671875	-223.6093139648438	-2207.180419921875	1103.032958984375	-387.8067932128906	-2162.1650390625	699.25732421875	-538.6644897460938	-2460.794677734375	442.2040405273438	-520.9615478515625	-2240.9267578125	725.7184448242188	-540.2623901367188	-2195.904296875	603.3628540039062	-520.8579711914062	-1833.95458984375	145.3282775878906	-228.2860870361328	-2391.99169921875	513.3505859375	-533.730224609375	-2274.885009765625	633.7203369140625	-516.1919555664062	-1996.490112304688	701.0628051757812	-217.8393096923828	-2525.712646484375	95.77198028564453	-454.3324584960938	-2073.383544921875	682.9229736328125	-218.7674407958984	-1973.607177734375	605.1055297851562	-243.7904052734375	-2052.62548828125	589.9461059570312	-238.4648895263672	-2261.0322265625	575.4885864257812	-522.6055908203125	-2014.016723632812	561.644775390625	-237.0048217773438	-2335.832275390625	458.3292541503906	-531.0658569335938	-2405.610595703125	386.1543273925781	-524.8897094726562	-1967.394165039062	444.8730773925781	-230.8691711425781	-2568.080810546875	146.9534149169922	-506.1593933105469	-2046.75390625	435.3653869628906	-224.2940521240234	-2589.08740234375	329.03857421875	-410.9101257324219	-1955.448608398438	344.1466979980469	-240.6376190185547	-2034.148315429688	337.5932006835938	-236.9447784423828	-2553.66259765625	285.2759094238281	-498.7772827148438	-1964.173828125	151.2460174560547	-266.7326965332031	-1775.79638671875	187.3408508300781	-277.7631225585938	-2016.406982421875	113.9219741821289	-329.6483459472656	-1987.518798828125	97.11891174316406	-357.4091491699219	-2007.040893554688	87.95872497558594	-309.2648620605469	-2607.650390625	329.2401428222656	-462.6845397949219
2	0.005	-2022.041137695312	1523.447875976562	-534.519775390625	-2073.744384765625	1503.286376953125	-232.3288116455078	-2095.403076171875	1061.826293945312	-532.5552978515625	-2091.41455078125	1051.699951171875	-236.5813140869141	-2045.350952148438	1007.312622070312	-519.0365600585938	-2561.9375	346.2393188476562	-445.0364379882812	-2035.308837890625	1004.917297363281	-266.0045471191406	-2192.013671875	956.3432006835938	-536.46630859375	-2169.46044921875	947.0499267578124	-223.8381958007812	-2192.229736328125	1101.968139648438	-387.6629028320312	-2144.88916015625	698.0015869140625	-538.3975219726562	-2446.640869140625	445.2201538085938	-521.812744140625	-2223.51318359375	723.7573852539062	-540.8356323242188	-2177.3076171875	601.2237548828125	-521.123779296875	-1815.083984375	146.3052368164062	-229.4090423583984	-2375.898681640625	514.1181030273438	-534.956298828125	-2257.232177734375	631.4174194335938	-517.0379638671875	-1982.961303710938	697.6757202148438	-218.1514434814453	-2515.938720703125	100.0114517211914	-455.4720458984375	-2059.695556640625	679.9638671875	-217.7406768798828	-1960.309936523438	601.9046630859375	-242.4066467285156	-2038.928833007812	586.7446899414062	-238.1812286376953	-2243.96923828125	574.5264892578125	-522.9485473632812	-2000.24755859375	559.1548461914062	-236.0873565673828	-2321.224853515625	458.3771362304688	-532.3834838867188	-2392.9091796875	388.1360168457031	-525.3045043945312	-1951.198120117188	444.26025390625	-231.9980621337891	-2558.819091796875	151.8229675292969	-507.8407287597656	-2030.531860351562	433.288330078125	-224.6605224609375	-2578.115478515625	332.96630859375	-409.9371948242188	-1937.626953125	343.7449951171875	-241.3895416259766	-2016.6748046875	336.1645202636719	-237.1873626708984	-2543.2958984375	290.305908203125	-498.7649536132812	-1945.25244140625	150.4212951660156	-267.5299072265625	-1756.82470703125	189.0239715576172	-278.5827026367188	-1997.697143554688	113.0990829467773	-331.1212463378906	-1968.124633789062	96.2353515625	-358.3506774902344	-1986.093994140625	85.5862808227539	-310.1173706054688	-2595.730224609375	332.7513427734375	-461.5621948242188
3	0.01	-2006.96435546875	1521.994384765625	-533.4801025390625	-2058.915283203125	1501.254028320312	-231.5245361328125	-2080.622802734375	1060.542602539062	-532.886962890625	-2077.302490234375	1049.74462890625	-236.1486358642578	-2030.3154296875	1006.104614257812	-518.8720092773438	-2550.152099609375	350.8717041015625	-444.7896728515625	-2020.614868164062	1003.073486328125	-264.7532958984375	-2177.081298828125	954.9017333984376	-537.3506469726562	-2154.73291015625	944.5672607421876	-223.8843078613281	-2177.397216796875	1100.001831054688	-387.13525390625	-2126.898193359375	696.8403930664062	-537.4197387695312	-2432.045654296875	447.8049926757812	-522.2743530273438	-2205.728515625	721.8389282226562	-540.9219360351562	-2158.748291015625	598.8008422851562	-520.7998046875	-1797.919799804688	147.42919921875	-230.6357574462891	-2359.30322265625	515.3386840820312	-535.8709716796875	-2239.214111328125	628.8304443359375	-517.8201293945312	-1967.865478515625	695.3456420898438	-216.1137390136719	-2505.516845703125	104.9180145263672	-457.4658508300781	-2045.159057617188	677.0449829101562	-215.7371673583984	-1945.404052734375	598.52587890625	-241.2895965576172	-2026.520629882812	584.574951171875	-238.5733032226562	-2225.708984375	572.6159057617188	-523.6312255859375	-1986.78759765625	556.9292602539062	-236.1419219970703	-2306.40234375	457.7784729003906	-533.054931640625	-2379.8203125	389.6887512207031	-525.9717407226562	-1935.304809570312	443.3811950683594	-232.6739654541016	-2548.3857421875	156.9197235107422	-509.5595703125	-2014.135864257812	431.6998901367188	-224.9637145996094	-2566.752197265625	337.7513122558594	-409.8456420898438	-1921.38232421875	342.5276184082031	-242.3263702392578	-2000.661865234375	334.8826599121094	-237.9335632324219	-2531.564208984375	294.5349731445312	-498.3579406738281	-1927.653442382812	149.7851867675781	-268.6800842285156	-1740.088745117188	189.9120483398438	-280.2796630859375	-1979.190795898438	111.0682373046875	-332.3812255859375	-1950.194213867188	94.7236099243164	-359.7484436035156	-1968.6259765625	85.18799591064453	-311.3179626464844	-2584.737060546875	338.6696166992188	-461.71142578125
4	0.015	-1991.487182617188	1520.946166992188	-532.7078247070312	-2044.045654296875	1499.010986328125	-230.2502746582031	-2066.2236328125	1059.24267578125	-532.556640625	-2062.824951171875	1047.4775390625	-235.9493408203125	-2015.89892578125	1004.844299316406	-519.0137939453125	-2537.872802734375	354.9790344238281	-444.1952514648438	-2005.600952148438	1000.629150390625	-264.779052734375	-2161.61181640625	953.07666015625	-537.6610107421875	-2140.22216796875	941.6162109375	-223.7902526855469	-2162.34765625	1097.848876953125	-386.6104431152344	-2108.638916015625	694.2872924804688	-537.0921020507812	-2416.207763671875	450.0830383300781	-522.3367919921875	-2187.798828125	719.3082275390625	-541.384765625	-2140.65625	597.3493041992188	-520.7745971679688	-1781.6630859375	146.5113525390625	-231.7605590820312	-2342.1142578125	515.4343872070312	-536.4746704101562	-2220.7880859375	625.7420654296875	-518.4947509765625	-1953.322143554688	692.1652221679688	-214.5124053955078	-2495.279296875	109.016731262207	-459.3651733398438	-2030.590698242188	673.9844360351562	-213.8884124755859	-1932.067138671875	595.4156494140625	-240.5821685791016	-2011.79345703125	581.1994018554688	-238.6865692138672	-2207.459716796875	569.341552734375	-524.0518798828125	-1971.745727539062	554.20703125	-235.8461151123047	-2290.777587890625	456.9043579101562	-533.4432373046875	-2365.807373046875	390.5468139648438	-526.5011596679688	-1919.633544921875	441.6106567382812	-233.1939392089844	-2537.718017578125	162.5029449462891	-510.9325866699219	-1999.132568359375	430.359375	-225.3987274169922	-2554.947021484375	342.233154296875	-409.4183959960938	-1904.531127929688	341.1759033203125	-243.1404418945312	-1984.0673828125	333.0340270996094	-237.8459320068359	-2519.96875	299.3939514160156	-498.5788879394531	-1910.84716796875	148.5021514892578	-269.9682922363281	-1723.255249023438	190.2402954101562	-281.7513427734375	-1962.95458984375	110.2011947631836	-333.5248107910156	-1933.515380859375	93.86951446533205	-360.8136901855469	-1951.384765625	83.51199340820312	-312.36962890625	-2572.03955078125	343.5320739746094	-461.3807067871094
